<?xml version="1.0" encoding="UTF-8"?>
<svg width="1024" height="1024" viewBox="0 0 1024 1024" xmlns="http://www.w3.org/2000/svg">
  <path id="30" d="M 0,1024 C 0,682.667 0,341.333 0,0 C 341.333,0 682.667,0 1024,0 C 1024,341.333 1024,682.667 1024,1024 C 682.667,1024 341.333,1024 0,1024 ZM 246,531 C 248.196,533.836 250.391,536.671 252.587,539.507 C 279.247,573.939 320.529,601.971 371.967,620.571 C 379.924,623.448 386.589,626.266 386.777,626.831 C 387.195,628.086 379.947,643.823 360.207,684.520 C 351.942,701.559 343.064,720.450 340.479,726.500 C 335.266,738.699 328,759.969 328,763.029 C 328,765.928 326.551,765.495 319.556,760.503 C 309.530,753.348 302.781,750.687 293.409,750.193 C 275.358,749.241 262.194,758.205 257.393,774.721 C 255.407,781.554 255.368,796.777 257.310,807 C 257.785,809.500 258.260,812 258.735,814.500 C 257.645,813.333 256.553,812.167 255.463,811 C 243.971,798.704 239.281,774.376 240.523,733.500 C 241.817,690.909 237.626,664.423 225.741,640.089 C 208.091,603.950 166.445,577.087 127.960,577.017 C 112.095,576.988 100.591,581.296 92.189,590.411 C 86.366,596.728 83.273,603.525 81,615 C 81.345,617.201 81.691,619.403 82.036,621.604 C 83.363,630.067 86.969,637.125 92.930,642.931 C 98.443,648.301 105.150,652.024 120.799,658.399 C 143.459,667.630 155.458,678.420 161.034,694.581 C 164.628,704.997 165.949,716.742 166.933,747 C 168.024,780.540 169.795,793.653 175.562,810.898 C 188.049,848.238 214.312,873.418 254.850,886.916 C 264.259,890.049 283.662,894.274 294.149,895.473 C 299.601,896.097 299.961,896.327 304.490,902.091 C 318.541,919.976 338.009,930.075 352.750,927.126 C 358.552,925.965 368.290,920.293 369.387,917.435 C 369.825,916.292 372.539,916 382.719,916 C 386.979,916 391.240,916.001 395.500,916.001 C 396.972,917.710 398.444,919.419 399.916,921.128 C 405.321,927.404 414.690,932.100 427,934.702 C 439.868,937.422 466.454,937.168 478.295,934.212 C 490.658,931.126 497.575,927.580 503.940,921.067 C 505.753,919.211 507.567,917.356 509.380,915.500 C 511.066,917.287 512.751,919.073 514.437,920.860 C 520.540,927.329 528.091,931.312 539.766,934.221 C 551.046,937.031 579.266,937.308 590.580,934.719 C 605.313,931.348 615.704,925.994 620.132,919.491 C 620.921,918.332 621.711,917.173 622.500,916.014 C 626.428,916.012 630.355,916.009 634.283,916.007 C 638.211,916.005 642.139,916.002 646.067,916 C 647.276,917.209 648.485,918.418 649.694,919.627 C 657.262,927.195 669.418,929.780 680.671,926.214 C 704.899,918.537 734.052,880.983 753.032,833 C 760.874,813.174 763.474,800.942 762.758,787.235 C 762.067,773.999 759.439,767.279 752.080,759.920 C 744.850,752.690 738.081,750 727.119,750 C 714.779,750 705.107,754.005 692.890,764.172 C 690.850,765.869 688.811,767.567 686.771,769.264 C 685.796,765.470 684.821,761.676 683.846,757.882 C 679.701,741.750 672.545,724.521 652.915,683.415 C 643.482,663.662 633.818,643.111 631.438,637.746 C 629.996,634.495 628.553,631.242 627.111,627.991 C 631.510,626.521 635.909,625.052 640.308,623.582 C 673.098,612.627 704.325,596.527 728.494,578.114 C 741.004,568.584 759.758,550.086 767.895,539.250 C 771.302,534.713 774.520,531 776,531 C 784.059,533.647 792.117,536.294 800.176,538.941 C 826.110,547.459 828.457,547.738 827.810,542.223 C 827.514,539.697 826.477,539.260 781,525 C 780.333,524.333 779.667,523.667 779,523 C 779.845,521.505 780.689,520.009 781.534,518.514 C 782.928,516.047 786.078,509.072 793,492 C 798.917,491.464 804.833,490.929 810.750,490.393 C 820.513,489.509 829.287,488.368 830.250,487.858 C 832.174,486.837 832.629,482.508 830.923,481.453 C 830.331,481.087 822.231,481.510 796,484 C 796.083,482.250 796.167,480.500 796.250,478.750 C 796.388,475.862 796.463,464.725 796.419,454 C 796.352,437.789 795.875,431.637 793.592,417.529 C 788.027,383.142 779.396,354.698 766.824,329.308 C 764.482,324.577 762.139,319.847 759.797,315.116 C 760.647,312.513 761.496,309.911 762.346,307.308 C 776.026,265.406 781.906,227.731 780.706,189.661 C 779.650,156.169 773.703,127.927 762.970,105.438 C 761.946,103.292 760.922,101.146 759.898,99 C 757.959,99 756.019,99 754.080,99 C 742.060,99 720.731,103.985 704.153,110.668 C 669.278,124.728 636.841,147.101 604.667,179.288 C 599.389,184.568 594.112,189.848 588.834,195.128 C 585.945,194.463 583.056,193.798 580.167,193.133 C 556.544,187.697 531.326,185.531 501,186.332 C 477.477,186.953 463.585,188.441 443.514,192.489 C 439.519,193.295 435.522,194.100 431.527,194.906 C 426.356,189.774 421.185,184.641 416.014,179.509 C 394.315,157.973 381.400,147.364 359.441,133.036 C 345.739,124.096 321.751,112.174 308.058,107.499 C 296.466,103.541 276.723,99.317 267.500,98.822 C 265.500,98.715 263.500,98.607 261.500,98.500 C 260.242,101 258.985,103.500 257.727,106 C 246.568,128.184 240,162.510 240,198.638 C 240,233.400 245.241,265.588 257.010,303.093 C 258.327,307.291 259.645,311.488 260.962,315.686 C 258.983,319.500 257.003,323.315 255.024,327.129 C 230.978,373.464 218.272,442.141 226,484 C 220.390,483.489 214.780,482.977 209.170,482.466 C 199.913,481.622 191.588,481.221 190.670,481.573 C 188.720,482.321 188.430,486.526 190.250,487.663 C 190.938,488.092 199.938,489.469 229,493 C 229.663,495.052 230.326,497.104 230.989,499.156 C 232.083,502.542 234.783,509.516 241,524 C 233.432,526.497 225.864,528.993 218.296,531.490 C 205.809,535.610 194.962,539.610 194.193,540.379 C 192.594,541.978 193.350,545.537 195.462,546.347 C 196.224,546.640 207.907,543.306 246,531 Z" fill="#FFFFFF" stroke="none" />
  <path id="10" d="M 252,520 C 250.695,517.750 249.391,515.500 248.086,513.250 C 242.874,504.262 239.862,496.077 241,494 C 246.452,494.568 251.903,495.137 257.355,495.705 C 262.807,496.273 268.258,496.842 273.710,497.410 C 274.079,496.721 274.447,496.032 274.816,495.343 C 277.418,490.481 275.638,490.030 238,486 C 237.700,485.633 237.400,485.267 237.100,484.900 C 236.605,484.295 235.706,480.246 234,468 C 234,464.017 234,460.034 234,456.051 C 234,424.346 243.330,381.176 258,345 C 259.700,341.429 261.399,337.859 263.099,334.288 C 268.581,322.772 279.004,305.747 286.715,295.712 C 289.340,292.295 296.328,284.438 313,267 C 315.528,264.995 318.055,262.991 320.583,260.986 C 364.455,226.192 406.116,208.555 467,199 C 469.083,198.675 471.167,198.351 473.250,198.026 C 484.345,196.297 521.468,195.631 536,196.900 C 591.077,201.710 638.413,217.866 680,246.051 C 708.387,265.290 728.867,286.241 746.546,314.129 C 756.514,329.853 764.150,346.613 772,370 C 772.845,372.917 773.691,375.833 774.536,378.750 C 778.715,393.172 783.705,420.268 786,441 C 786.333,450.333 786.667,459.667 787,469 C 786.813,470.173 786.625,471.346 786.438,472.519 C 786.129,474.455 785.230,478.280 783,486 C 777.134,486.628 771.268,487.256 765.402,487.884 C 752.327,489.284 747.384,490.188 746.169,491.403 C 743.982,493.590 745.701,496.382 749.511,496.832 C 751.056,497.014 758.773,496.452 781,494 C 780.700,494.956 780.399,495.911 780.099,496.867 C 779.603,498.444 777.353,503.843 771,518 C 770.535,518.345 770.071,518.689 769.606,519.034 C 768.599,519.781 765.687,519.227 750,514 C 748.820,513.637 747.641,513.273 746.461,512.910 C 742.137,511.578 739.748,513.076 740.199,516.837 C 740.470,519.096 741.668,519.726 764,527 C 762.750,528.776 761.500,530.551 760.250,532.327 C 743.994,555.418 714.988,578.487 680.278,595.930 C 639.855,616.245 593.591,628.389 542.500,632.098 C 518.200,633.862 474.542,632.384 451,629 C 447.917,628.458 444.833,627.915 441.750,627.373 C 436.663,626.478 424.490,623.778 414.701,621.373 C 404.912,618.968 396.024,617 393,617 C 389.750,615.885 386.500,614.770 383.250,613.655 C 365.669,607.623 354.850,602.905 329,590 C 326.066,588.318 323.133,586.636 320.199,584.954 C 308.020,577.971 291.504,565.509 280.743,555.182 C 269.490,544.383 257,529.558 257,527 C 260.917,525.740 264.833,524.479 268.750,523.219 C 279.430,519.782 280.528,519.205 280.801,516.883 C 281.475,511.157 279.866,511.331 252,520 ZM 295.093,402 C 293.666,411.400 294.594,430.036 296.976,439.818 C 300.992,456.308 310.562,472.581 323.435,484.809 C 332.590,493.505 337.860,497.113 349.365,502.563 C 396.442,524.864 452.478,504.855 475.566,457.500 C 482.523,443.230 484.301,435.179 484.394,417.500 C 484.486,400.088 482.638,391.208 476.031,377.294 C 461.463,346.614 435.907,327.522 402.500,322.362 C 365.915,316.711 327.279,335.244 307.620,367.875 C 302.177,376.909 296.592,392.124 295.093,402 ZM 388.137,295.573 C 385.595,296.413 388.881,298.809 394.115,299.931 C 404.576,302.174 414.351,300.775 425.645,295.416 C 437.240,289.914 445,280.954 445,273.067 C 445,270.188 439.955,263 437.934,263 C 437.461,263 435.287,265.632 433.103,268.848 C 425.049,280.708 412.931,288.898 397.291,293.053 C 393.006,294.191 388.886,295.325 388.137,295.573 ZM 459.436,510.053 C 455.976,512.924 458.837,523.327 465.024,530.374 C 470.260,536.337 475.232,538.454 484,538.452 C 493.328,538.449 499.808,535.417 506.105,528.106 C 507.522,526.461 508.938,524.817 510.355,523.172 C 511.274,524.328 512.192,525.484 513.111,526.640 C 516.497,530.900 519.176,533.029 525,536.089 C 531.225,539.360 542.631,539.443 548.643,536.261 C 554.414,533.207 559.776,526.577 561.628,520.208 C 563.599,513.429 562.871,510 559.460,510 C 556.717,510 555.539,511.967 554.517,518.257 C 553.687,523.370 547.806,529.441 542.235,530.939 C 532.962,533.432 522.235,528.156 517.344,518.698 C 515.468,515.070 514.296,505 515.750,505 C 517.821,505 529.050,495.913 531.983,491.864 C 540.259,480.440 532.136,473 511.390,473 C 498.944,473 492.342,474.504 488.671,478.175 C 486.157,480.689 485.823,481.646 486.277,485.031 C 486.984,490.300 491.678,496.007 499.574,501.199 C 506.627,505.836 507.165,507.262 504.920,515.348 C 503.372,520.921 494.711,529.499 489.137,530.979 C 477.818,533.985 467.280,526.663 465.292,514.411 C 464.637,510.372 461.692,508.181 459.436,510.053 ZM 537.461,401.450 C 533.805,421.576 537.985,444.805 548.716,464 C 555.166,475.537 572.056,492.570 583.342,498.919 C 593.558,504.667 608.236,509.602 619.500,511.079 C 654.282,515.638 691.661,498.383 711.342,468.682 C 746.053,416.300 720.104,344.744 659.500,325.724 C 625.441,315.035 588.101,324.530 563.428,350.155 C 548.782,365.365 541.349,380.050 537.461,401.450 ZM 581.950,268.314 C 579.550,272.250 579.535,274.386 581.871,279.500 C 586.987,290.700 606.401,301 622.394,301 C 628.370,301 640,298.371 640,297.020 C 640,296.626 636.062,295.282 631.250,294.034 C 612.600,289.198 599.770,280.910 592.367,268.916 C 590.359,265.662 588.525,263 588.292,263 C 586.720,263 583.592,265.622 581.950,268.314 Z" fill="#815F9C" stroke="none" />
  <path id="37" d="M 451,629 C 474.542,632.384 518.200,633.862 542.500,632.098 C 593.591,628.389 639.855,616.245 680.278,595.930 C 714.988,578.487 743.994,555.418 760.250,532.327 C 761.500,530.551 762.750,528.776 764,527 C 768,528.333 772,529.667 776,531 C 774.520,531 771.302,534.713 767.895,539.250 C 759.758,550.086 741.004,568.584 728.494,578.114 C 704.325,596.527 673.098,612.627 640.308,623.582 C 635.909,625.052 631.510,626.521 627.111,627.991 C 628.553,631.242 629.996,634.495 631.438,637.746 C 633.818,643.111 643.482,663.662 652.915,683.415 C 672.545,724.521 679.701,741.750 683.846,757.882 C 684.821,761.676 685.796,765.470 686.771,769.264 C 688.811,767.567 690.850,765.869 692.890,764.172 C 705.107,754.005 714.779,750 727.119,750 C 738.081,750 744.850,752.690 752.080,759.920 C 759.439,767.279 762.067,773.999 762.758,787.235 C 763.474,800.942 760.874,813.174 753.032,833 C 734.052,880.983 704.899,918.537 680.671,926.214 C 669.418,929.780 657.262,927.195 649.694,919.627 C 648.485,918.418 647.276,917.209 646.067,916 C 642.139,916.002 638.211,916.005 634.283,916.007 C 630.355,916.009 626.428,916.012 622.500,916.014 C 621.711,917.173 620.921,918.332 620.132,919.491 C 615.704,925.994 605.313,931.348 590.580,934.719 C 579.266,937.308 551.046,937.031 539.766,934.221 C 528.091,931.312 520.540,927.329 514.437,920.860 C 512.751,919.073 511.066,917.287 509.380,915.500 C 507.567,917.356 505.753,919.211 503.940,921.067 C 497.575,927.580 490.658,931.126 478.295,934.212 C 466.454,937.168 439.868,937.422 427,934.702 C 414.690,932.100 405.321,927.404 399.916,921.128 C 398.444,919.419 396.972,917.710 395.500,916.001 C 391.240,916.001 386.979,916 382.719,916 C 372.539,916 369.825,916.292 369.387,917.435 C 368.290,920.293 358.552,925.965 352.750,927.126 C 338.009,930.075 318.541,919.976 304.490,902.091 C 299.961,896.327 299.601,896.097 294.149,895.473 C 283.662,894.274 264.259,890.049 254.850,886.916 C 214.312,873.418 188.049,848.238 175.562,810.898 C 169.795,793.653 168.024,780.540 166.933,747 C 165.949,716.742 164.628,704.997 161.034,694.581 C 155.458,678.420 143.459,667.630 120.799,658.399 C 105.150,652.024 98.443,648.301 92.930,642.931 C 86.969,637.125 83.363,630.067 82.036,621.604 C 81.691,619.403 81.345,617.201 81,615 C 83.273,603.525 86.366,596.728 92.189,590.411 C 100.591,581.296 112.095,576.988 127.960,577.017 C 166.445,577.087 208.091,603.950 225.741,640.089 C 237.626,664.423 241.817,690.909 240.523,733.500 C 239.281,774.376 243.971,798.704 255.463,811 C 256.553,812.167 257.645,813.333 258.735,814.500 C 258.260,812 257.785,809.500 257.310,807 C 255.368,796.777 255.407,781.554 257.393,774.721 C 262.194,758.205 275.358,749.241 293.409,750.193 C 302.781,750.687 309.530,753.348 319.556,760.503 C 326.551,765.495 328,765.928 328,763.029 C 328,759.969 335.266,738.699 340.479,726.500 C 343.064,720.450 351.942,701.559 360.207,684.520 C 379.947,643.823 387.195,628.086 386.777,626.831 C 386.589,626.266 379.924,623.448 371.967,620.571 C 320.529,601.971 279.247,573.939 252.587,539.507 C 250.391,536.671 248.196,533.836 246,531 C 249.667,529.667 253.333,528.333 257,527 C 257,529.558 269.490,544.383 280.743,555.182 C 291.504,565.509 308.020,577.971 320.199,584.954 C 323.133,586.636 326.066,588.318 329,590 C 329,590.224 329,590.449 329,590.673 C 329,592.944 359.034,605.768 393,618 C 398.917,619.466 404.834,620.933 410.751,622.399 C 432.281,627.735 449.837,630.614 451,629 ZM 103,639 C 108.667,641.667 114.333,644.333 120,647 C 124.558,649.365 129.115,651.730 133.673,654.095 C 145.540,660.254 148.363,662.220 155.051,668.990 C 168.293,682.393 172.461,693.937 176,727 C 176.333,730.333 176.667,733.667 177,737 C 177,747 177,757 177,767 C 177,768.210 177,769.421 177,770.631 C 177,777.574 180.212,794.516 182,797 C 187.532,819.367 195.903,835.055 209.479,848.500 C 219.547,858.471 230.568,866.116 242.104,871.132 C 245.069,872.421 248.035,873.711 251,875 C 251,875.195 251,875.390 251,875.585 C 251,876.424 262.439,880.640 269.500,882.404 C 282.276,885.596 289.330,886.145 290,884 C 276.874,859.494 271.105,847.756 267.018,837.244 C 266.297,835.390 263.663,832.455 260.897,830.424 C 252.924,824.571 245.491,815.518 240.561,805.655 C 232.017,788.561 230.820,779.704 230.479,731 C 230.331,709.825 229.938,691.487 229.605,690.250 C 229.403,689.500 229.202,688.750 229,688 C 229.216,688 229.432,688 229.648,688 C 230.729,688 226.296,666.396 223.481,657.943 C 222.030,653.586 220.428,649.791 219,649 C 205.360,616.825 171.153,591.220 136.114,586.960 C 117.601,584.709 102.219,590.356 95.824,601.750 C 95.216,602.833 94.608,603.917 94,605 C 93.499,606.083 92.998,607.167 92.497,608.250 C 88.355,617.204 92.629,629.719 103,639 ZM 311,767 C 301.017,761.338 298.385,760.596 292.577,760.223 C 283.311,759.628 278.870,761.077 273.501,766.446 C 269.529,770.417 266.888,775.923 265.564,782.990 C 265.376,783.993 265.188,784.997 265,786 C 265,788.667 265,791.333 265,794 C 265.040,794.750 265.081,795.500 265.121,796.250 C 265.161,797 265.202,797.750 265.242,798.500 C 265.952,797.744 266.661,796.987 267.371,796.231 C 271.671,791.648 276.465,792.435 280.050,798.314 C 284.117,804.983 281.378,810.274 274,810 C 271.680,808.167 269.359,806.333 267.039,804.500 C 267.199,805.417 267.359,806.333 267.519,807.250 C 267.679,808.167 267.840,809.083 268,810 C 268.649,812.632 269.298,815.264 269.947,817.896 C 271.906,825.841 283.180,852.091 289.662,863.795 C 295.846,874.961 306.796,890.756 314.102,899.047 C 318.018,903.491 323.647,908.673 332,914 C 333.375,914.722 334.751,915.445 336.126,916.167 C 338.983,917.667 342.040,918.333 346.065,918.333 C 354.629,918.333 360.691,914.705 365,907 C 370.070,892.981 370.207,891.704 369.681,880.500 C 369.061,867.290 365.947,854.014 359.537,837.250 C 358.358,834.167 357.179,831.083 356,828 C 353.742,823.583 351.483,819.167 349.225,814.750 C 336.959,790.761 325.985,777.052 311,767 ZM 338,762 C 337.333,765 336.667,768 336,771 C 336,775.020 337.978,778.569 340.875,782.271 C 354.581,799.783 369.849,832.059 376.544,857.673 C 379.922,870.597 380.903,889.572 378.681,899 C 378.170,901.167 377.660,903.333 377.149,905.500 C 379.872,905.500 382.594,905.500 385.317,905.500 C 388.040,905.500 390.762,905.500 393.485,905.500 C 393.735,903.509 393.985,901.518 394.235,899.527 C 395.277,891.219 399.254,883.721 406.298,876.786 C 408.298,874.816 410.299,872.847 412.299,870.877 C 411.749,868.231 411.200,865.585 410.650,862.939 C 410.100,860.293 409.550,857.646 409,855 C 408.327,851.626 407.655,848.253 406.982,844.879 C 405.872,839.312 403.435,828.625 401.565,821.129 C 399.695,813.633 396.050,798.275 393.465,787 C 390.880,775.725 388.368,765.938 387,764 C 384.003,749.866 384.314,747 388.845,747 C 390.445,747 392.238,747.582 392.829,748.294 C 393.420,749.006 397.074,762.506 400.951,778.294 C 403.301,787.863 405.650,797.431 408,807 C 407.805,807 407.611,807 407.416,807 C 406.465,807 415.864,846.228 417,847 C 420.213,859.787 421.451,863.803 421.823,864.173 C 422.195,864.543 425.875,863.684 430,862.264 C 435.833,860.256 440.092,859.580 449.161,859.221 C 463.485,858.654 472.742,860.471 483.805,866.021 C 486.370,867.308 488.935,868.594 491.500,869.881 C 491.417,867.901 491.333,865.920 491.250,863.940 C 491.167,861.960 491.083,859.980 491,858 C 491,844 491,830 491,816 C 490.833,793.167 490.667,770.333 490.500,747.500 C 491.823,747.500 493.145,747.500 494.468,747.500 C 498.316,747.500 498.458,747.622 499.130,751.500 C 499.511,753.700 500.322,783.400 500.932,817.500 C 501.302,838.167 501.671,858.833 502.041,879.500 C 503.269,881.940 504.498,884.379 505.726,886.819 C 506.954,889.259 508.182,891.698 509.410,894.138 C 510.160,892.584 510.910,891.030 511.660,889.476 C 512.898,886.912 514.380,884.180 514.955,883.406 C 515.303,882.937 515.652,882.469 516,882 C 516.250,882 516.500,882.001 516.750,882.001 C 517.162,882.002 517.388,873.901 517,846 C 518.941,771.213 519.867,748.938 520.311,748.250 C 521.339,746.658 526.226,746.626 527.800,748.200 C 528.514,748.914 529,752.356 529,756.700 C 529,759.133 529,761.567 529,764 C 529,775.667 529,787.333 529,799 C 528.667,806 528.333,813 528,820 C 527.667,831.333 527.333,842.667 527,854 C 527.167,859.107 527.333,864.215 527.500,869.323 C 530.064,868.089 532.627,866.854 535.191,865.620 C 546.108,860.364 554.951,858.703 569,859.271 C 577.948,859.633 582.249,860.328 588.380,862.404 C 592.714,863.872 596.431,864.902 596.640,864.693 C 596.849,864.484 601.515,846.018 607.010,823.657 C 610.340,810.105 613.670,796.552 617,783 C 619.667,771.667 622.333,760.333 625,749 C 626.353,747.337 628.266,746.999 630.123,747.177 C 633.135,747.465 633.535,747.857 633.818,750.805 C 633.993,752.623 632.080,762.860 629.568,773.555 C 628.045,780.037 626.523,786.518 625,793 C 624.834,793 624.668,793 624.502,793 C 624.228,793 621.114,804.812 617.581,819.250 C 607.847,859.025 606.680,864.289 607,867 C 606.007,870.179 607.495,872.335 611.808,876.648 C 618.702,883.542 622.559,890.519 624.330,899.294 C 624.747,901.363 625.166,903.431 625.583,905.500 C 627.702,905.601 629.821,905.701 631.940,905.802 C 635.436,905.968 638.638,905.743 639.054,905.302 C 639.470,904.861 639.187,901.575 638.426,898 C 637.665,894.425 637.032,888.767 637.021,885.426 C 637,879.181 639.551,862.260 641.119,858.253 C 641.413,857.502 641.706,856.751 642,856 C 643.142,852.753 644.284,849.507 645.426,846.260 C 647.310,840.903 648.661,836.402 648,836 C 659.473,810.124 666.962,795.611 673.745,786.105 C 675.273,783.964 676.799,781.824 678.327,779.683 C 677.760,776.724 677.193,773.766 676.626,770.807 C 672.738,750.523 665.373,732.503 635.034,669.045 C 628.341,655.045 621.651,640.725 620.167,637.222 C 619.268,635.099 618.369,632.976 617.470,630.853 C 612.642,631.856 607.813,632.860 602.985,633.863 C 572.037,640.294 544.342,643.003 509.605,642.995 C 476.431,642.988 447.606,640.143 418.495,634.003 C 415.330,633.335 412.165,632.668 409,632 C 407.042,631.427 405.085,630.855 403.127,630.282 C 401.169,629.709 399.213,629.137 397.255,628.564 C 396.431,630.220 395.608,631.876 394.784,633.532 C 393.425,636.264 392.018,639.737 391,644 C 386.667,653 382.333,662 378,671 C 372,683 366,695 360,707 C 358,711.667 356,716.333 354,721 C 352.523,723.750 351.047,726.500 349.570,729.250 C 347.056,733.933 343.596,742.797 338,762 ZM 498,912 C 502.011,904.271 499.298,892.763 491.404,884.025 C 478.929,870.217 454.117,864.715 434.500,871.407 C 419.572,876.499 409.536,885.293 404.544,897.654 C 404.363,898.103 404.181,898.551 404,899 C 404,908.270 404.612,910.615 406.286,913.102 C 409.018,917.163 419.583,922.866 425.956,923.721 C 429.980,924.261 430.266,924.155 429.512,922.404 C 427.775,918.369 427.762,907.329 429.488,901.371 C 431.526,894.336 432.502,893 435.603,893 C 438.746,893 439.556,896.425 437.549,901.229 C 435.475,906.192 435.559,916.859 437.713,922.230 C 438.284,923.653 438.855,925.077 439.426,926.500 C 444.061,926.487 448.697,926.475 453.332,926.462 C 466.533,926.426 467.330,926.310 469.064,924.169 C 470.068,922.929 471.140,919.908 471.445,917.457 C 471.630,915.971 471.815,914.486 472,913 C 472.184,912.216 472.368,911.432 472.552,910.648 C 472.856,909.354 472.181,905.867 471.053,902.898 C 468.285,895.616 468.372,893.750 471.482,893.750 C 475.628,893.750 478.302,901.216 478.539,913.455 C 478.646,919.001 479.173,923.558 479.728,923.743 C 481.460,924.320 491.908,919.949 494.987,917.358 C 496.612,915.990 497.955,914.225 498,912 ZM 534,878 C 527.555,882.820 522.737,888.807 520.118,895.250 C 519.745,896.167 519.373,897.083 519,898 C 519.006,907.739 519.619,910.495 521.004,912.750 C 521.669,913.833 522.335,914.917 523,916 C 523.813,916.800 524.626,917.599 525.439,918.399 C 528.103,921.020 537.280,924.490 539.398,923.677 C 540.361,923.307 540.583,921.718 540.211,917.846 C 539.930,914.918 540.217,909.255 542,898 C 546.422,892.015 547.095,891.675 548.651,892.607 C 551.337,894.215 551.445,896.538 549.089,902.015 C 546.585,907.835 546.308,917.409 548.493,922.637 C 548.991,923.828 549.488,925.020 549.986,926.211 C 554.072,926.377 558.157,926.544 562.243,926.710 C 577.647,927.338 579.277,926.772 581.399,920.063 C 581.933,918.375 582.466,916.688 583,915 C 583.187,914.011 583.374,913.022 583.561,912.033 C 583.870,910.401 583.365,906.367 582.440,903.070 C 580.661,896.731 580.964,894 583.446,894 C 585.813,894 587.677,897.702 591,909 C 590.369,917.912 589.843,921.359 589.425,922.408 C 588.739,924.131 589.019,924.259 592.309,923.725 C 598.360,922.743 607.854,917.925 611.277,914.101 C 614.170,910.868 614.494,909.886 614.444,904.500 C 614.272,886.008 591.802,868.916 567.750,868.982 C 565.500,868.988 563.250,868.994 561,869 C 561,868.775 561,868.549 561,868.324 C 561,867.952 557.703,868.364 553.672,869.239 C 549.444,870.157 543.732,872.346 534,878 ZM 752,782 C 751.945,777.632 748.735,770.400 745.191,766.661 C 737.329,758.366 724.245,757.234 711.005,763.702 C 703.523,767.357 688.247,782.326 681.115,792.991 C 667.010,814.083 653.014,847.199 648.556,870.031 C 648.037,872.687 647.519,875.344 647,878 C 648.276,903.114 651.143,910.477 661.646,915.615 C 668.603,919.019 674.441,918.574 683.757,913.932 C 693.250,909.202 708.027,894.103 718.250,878.687 C 720.833,874.791 723.417,870.896 726,867 C 730.333,858.667 734.667,850.333 739,842 C 741.482,835.412 743.541,830.125 745.179,826 C 746.817,821.875 748.796,815.912 749.578,812.750 C 750.052,810.833 750.526,808.917 751,807 C 751.352,806.253 751.704,805.507 752.056,804.760 C 752.637,803.528 753.377,798.194 753.699,792.907 C 754.108,786.192 753.940,783.099 752,782 Z" fill="#3D144C" stroke="none" />
  <path id="10" d="M 336,771 C 336.667,768 337.333,765 338,762 C 339.380,758.083 340.761,754.167 342.141,750.250 C 344.419,743.787 348.019,734.562 354,721 C 356,716.333 358,711.667 360,707 C 366,695 372,683 378,671 C 382.333,662 386.667,653 391,644 C 391.284,643.822 391.567,643.644 391.851,643.466 C 392.319,643.172 393.885,640.189 395.332,636.836 C 396.209,634.804 397.086,632.770 397.963,630.738 C 399.219,630.955 400.476,631.173 401.732,631.390 C 403.805,631.748 406.288,632.032 409,632 C 412.165,632.668 415.330,633.335 418.495,634.003 C 447.606,640.143 476.431,642.988 509.605,642.995 C 544.342,643.003 572.037,640.294 602.985,633.863 C 607.813,632.860 612.642,631.856 617.470,630.853 C 618.369,632.976 619.268,635.099 620.167,637.222 C 621.651,640.725 628.341,655.045 635.034,669.045 C 665.373,732.503 672.738,750.523 676.626,770.807 C 677.193,773.766 677.760,776.724 678.327,779.683 C 676.799,781.824 675.273,783.964 673.745,786.105 C 666.962,795.611 659.473,810.124 648,836 C 647.693,836.374 647.386,836.747 647.079,837.121 C 645.058,839.581 640.863,855.175 642,856 C 641.706,856.751 641.413,857.502 641.119,858.253 C 639.551,862.260 637,879.181 637.021,885.426 C 637.032,888.767 637.665,894.425 638.426,898 C 639.187,901.575 639.470,904.861 639.054,905.302 C 638.638,905.743 635.436,905.968 631.940,905.802 C 629.821,905.701 627.702,905.601 625.583,905.500 C 625.166,903.431 624.747,901.363 624.330,899.294 C 622.559,890.519 618.702,883.542 611.808,876.648 C 607.495,872.335 606.007,870.179 607,867 C 607.314,866.417 607.628,865.833 607.942,865.250 C 609.352,862.630 625,796.353 625,793 C 626.523,786.518 628.045,780.037 629.568,773.555 C 632.080,762.860 633.993,752.623 633.818,750.805 C 633.535,747.857 633.135,747.465 630.123,747.177 C 628.266,746.999 626.353,747.337 625,749 C 624.707,749.750 624.415,750.500 624.122,751.250 C 623.639,752.487 621.840,760.138 617,783 C 613.670,796.552 610.340,810.105 607.010,823.657 C 601.515,846.018 596.849,864.484 596.640,864.693 C 596.431,864.902 592.714,863.872 588.380,862.404 C 582.249,860.328 577.948,859.633 569,859.271 C 554.951,858.703 546.108,860.364 535.191,865.620 C 532.627,866.854 530.064,868.089 527.500,869.323 C 527.333,864.215 527.167,859.107 527,854 C 527.333,842.667 527.667,831.333 528,820 C 528.333,813 528.667,806 529,799 C 529,787.333 529,775.667 529,764 C 529,761.567 529,759.133 529,756.700 C 529,752.356 528.514,748.914 527.800,748.200 C 526.226,746.626 521.339,746.658 520.311,748.250 C 519.867,748.938 518.941,771.213 517,846 C 516.667,858 516.333,870 516,882 C 515.652,882.469 515.303,882.937 514.955,883.406 C 514.380,884.180 512.898,886.912 511.660,889.476 C 510.910,891.030 510.160,892.584 509.410,894.138 C 508.182,891.698 506.954,889.259 505.726,886.819 C 504.498,884.379 503.269,881.940 502.041,879.500 C 501.671,858.833 501.302,838.167 500.932,817.500 C 500.322,783.400 499.511,753.700 499.130,751.500 C 498.458,747.622 498.316,747.500 494.468,747.500 C 493.145,747.500 491.823,747.500 490.500,747.500 C 490.667,770.333 490.833,793.167 491,816 C 491,830 491,844 491,858 C 491.083,859.980 491.167,861.960 491.250,863.940 C 491.333,865.920 491.417,867.901 491.500,869.881 C 488.935,868.594 486.370,867.308 483.805,866.021 C 472.742,860.471 463.485,858.654 449.161,859.221 C 440.092,859.580 435.833,860.256 430,862.264 C 425.875,863.684 422.195,864.543 421.823,864.173 C 421.451,863.803 420.213,859.787 417,847 C 414,833.667 411,820.333 408,807 C 405.650,797.431 403.301,787.863 400.951,778.294 C 397.074,762.506 393.420,749.006 392.829,748.294 C 392.238,747.582 390.445,747 388.845,747 C 384.314,747 384.003,749.866 387,764 C 388.685,771.250 390.369,778.500 392.054,785.750 C 394.834,797.713 399.783,818.188 409,855 C 409.550,857.646 410.100,860.293 410.650,862.939 C 411.200,865.585 411.749,868.231 412.299,870.877 C 410.299,872.847 408.298,874.816 406.298,876.786 C 399.254,883.721 395.277,891.219 394.235,899.527 C 393.985,901.518 393.735,903.509 393.485,905.500 C 390.762,905.500 388.040,905.500 385.317,905.500 C 382.594,905.500 379.872,905.500 377.149,905.500 C 377.660,903.333 378.170,901.167 378.681,899 C 380.903,889.572 379.922,870.597 376.544,857.673 C 369.849,832.059 354.581,799.783 340.875,782.271 C 337.978,778.569 336,775.020 336,771 Z" fill="#815F9C" stroke="none" />
  <path id="37" d="M 787,469 C 786.667,459.667 786.333,450.333 786,441 C 786.228,441 786.456,441 786.684,441 C 787.768,441 785.333,422.701 782.013,405.899 C 777.756,384.356 774.248,371.780 772,370 C 764.150,346.613 756.514,329.853 746.546,314.129 C 728.867,286.241 708.387,265.290 680,246.051 C 638.413,217.866 591.077,201.710 536,196.900 C 521.468,195.631 484.345,196.297 473.250,198.026 C 471.167,198.351 469.083,198.675 467,199 C 465.250,199.013 463.500,199.026 461.750,199.039 C 456.236,199.080 430.465,204.507 416,208.675 C 405.206,211.785 375.958,223.852 365.500,229.511 C 344.365,240.947 321.762,257.087 313,267 C 296.328,284.438 289.340,292.295 286.715,295.712 C 279.004,305.747 268.581,322.772 263.099,334.288 C 261.399,337.859 259.700,341.429 258,345 C 257.034,346.583 256.067,348.167 255.101,349.750 C 249.690,358.615 241.275,389.215 236.391,417.792 C 234.118,431.090 233.729,436.146 234,468 C 235.706,480.246 236.605,484.295 237.100,484.900 C 237.400,485.267 237.700,485.633 238,486 C 234,485.333 230,484.667 226,484 C 218.272,442.141 230.978,373.464 255.024,327.129 C 257.003,323.315 258.983,319.500 260.962,315.686 C 259.645,311.488 258.327,307.291 257.010,303.093 C 245.241,265.588 240,233.400 240,198.638 C 240,162.510 246.568,128.184 257.727,106 C 258.985,103.500 260.242,101 261.500,98.500 C 263.500,98.607 265.500,98.715 267.500,98.822 C 276.723,99.317 296.466,103.541 308.058,107.499 C 321.751,112.174 345.739,124.096 359.441,133.036 C 381.400,147.364 394.315,157.973 416.014,179.509 C 421.185,184.641 426.356,189.774 431.527,194.906 C 435.522,194.100 439.519,193.295 443.514,192.489 C 463.585,188.441 477.477,186.953 501,186.332 C 531.326,185.531 556.544,187.697 580.167,193.133 C 583.056,193.798 585.945,194.463 588.834,195.128 C 594.112,189.848 599.389,184.568 604.667,179.288 C 636.841,147.101 669.278,124.728 704.153,110.668 C 720.731,103.985 742.060,99 754.080,99 C 756.019,99 757.959,99 759.898,99 C 760.922,101.146 761.946,103.292 762.970,105.438 C 773.703,127.927 779.650,156.169 780.706,189.661 C 781.906,227.731 776.026,265.406 762.346,307.308 C 761.496,309.911 760.647,312.513 759.797,315.116 C 762.139,319.847 764.482,324.577 766.824,329.308 C 779.396,354.698 788.027,383.142 793.592,417.529 C 795.875,431.637 796.352,437.789 796.419,454 C 796.463,464.725 796.388,475.862 796.250,478.750 C 796.167,480.500 796.083,482.250 796,484 C 795.667,484.333 795.333,484.667 795,485 C 793.284,485.035 791.569,485.070 789.853,485.105 C 785.243,485.199 784.780,485.017 785.413,483.367 C 785.802,482.354 786.318,478.707 787,469 ZM 286,140 C 286,134.981 307.621,140.818 321.827,149.672 C 340.480,161.298 357.917,179.316 373.260,202.820 C 375.317,205.971 377.374,209.121 379.431,212.272 C 380.943,211.688 382.453,211.104 383.965,210.520 C 386.459,209.556 395.232,206.401 403.459,203.508 C 411.686,200.615 418.563,197.813 418.740,197.281 C 419.224,195.829 394.022,171.743 381.487,161.677 C 359.074,143.679 333.810,128.525 311.385,119.625 C 301.832,115.834 282.209,110.613 273.231,109.475 C 271.475,109.252 269.718,109.030 267.962,108.807 C 266.992,110.947 266.022,113.086 265.052,115.226 C 259.021,128.527 253.972,148.460 251.495,168.750 C 250.997,172.833 250.498,176.917 250,181 C 250.040,206.188 250.490,217.887 251.026,223.250 C 251.351,226.500 251.675,229.750 252,233 C 251.812,233 251.624,233 251.436,233 C 250.710,233 253.341,250.648 255.955,263.314 C 259.527,280.620 265.370,301.555 267.169,303.496 C 267.766,304.141 268.606,303.699 271,300 C 281.077,286.428 284.677,281.928 285.501,281.244 C 286.001,280.829 286.500,280.415 287,280 C 314.769,250.702 332.530,236.711 361.218,221.532 C 364.791,219.642 368.363,217.751 371.936,215.861 C 370.254,213.134 368.571,210.407 366.889,207.680 C 346.305,174.310 318.036,149.133 293.208,142.055 C 290.805,141.370 288.403,140.685 286,140 ZM 764,142 C 761.277,128.758 756.390,113.746 753.635,110.159 C 752.325,108.453 745.108,109.232 732,112.494 C 714.901,116.749 695.372,124.904 676.573,135.640 C 656.987,146.825 627.135,170.600 609.750,188.860 C 607.167,191.573 604.583,194.287 602,197 C 603.162,198.357 608,200.221 613.500,202.017 C 619,203.813 627.555,206.896 632.510,208.866 C 635.513,210.060 638.517,211.254 641.520,212.448 C 642.267,211.373 643.013,210.299 643.760,209.224 C 644.507,208.149 645.253,207.075 646,206 C 646.333,205.333 646.667,204.667 647,204 C 648.667,201.667 650.333,199.333 652,197 C 654.137,194.417 656.275,191.833 658.412,189.250 C 661.939,184.988 666.801,179.025 669.217,176 C 673.845,170.205 687.077,158.921 698,151.454 C 701.575,149.010 708.662,145.208 723,139 C 728.333,139 733.667,139 739,139 C 730.088,140.715 724.425,142.511 720.668,144.097 C 705.223,150.616 686.539,165.369 672.766,181.921 C 665.681,190.435 648.993,214.290 649.005,215.887 C 649.008,216.224 653.620,218.843 659.255,221.706 C 682.016,233.272 702.403,248.276 721.750,267.698 C 726.167,272.132 730.583,276.566 735,281 C 735.333,281.667 735.667,282.333 736,283 C 738.501,286.417 741.002,289.833 743.503,293.250 C 747.630,298.888 751.429,303.641 751.945,303.814 C 753.707,304.404 755.981,298.138 760.471,280.318 C 765.521,260.276 768,247.003 768,240 C 769.813,223.337 770.263,210.512 770.170,200.750 C 770.113,194.833 770.057,188.917 770,183 C 770.012,180.250 770.025,177.500 770.037,174.750 C 770.085,163.912 766.396,143.901 764,142 Z" fill="#3D144C" stroke="none" />
  <path id="38" d="M 295.093,402 C 296.592,392.124 302.177,376.909 307.620,367.875 C 327.279,335.244 365.915,316.711 402.500,322.362 C 435.907,327.522 461.463,346.614 476.031,377.294 C 482.638,391.208 484.486,400.088 484.394,417.500 C 484.301,435.179 482.523,443.230 475.566,457.500 C 452.478,504.855 396.442,524.864 349.365,502.563 C 337.860,497.113 332.590,493.505 323.435,484.809 C 310.562,472.581 300.992,456.308 296.976,439.818 C 294.594,430.036 293.666,411.400 295.093,402 ZM 474.556,399.887 C 472.591,390.469 467.845,379.206 462.001,370.096 C 455.796,360.424 442.936,347.928 433.349,342.258 C 419.126,333.845 399.830,329.213 384.186,330.455 C 361.488,332.257 342.626,341.231 326.885,357.719 C 281.899,404.839 303.884,481.966 367.500,500.206 C 374.293,502.154 377.688,502.486 390,502.407 C 402.734,502.325 405.596,501.983 413.500,499.598 C 430.234,494.549 445.661,484.380 456.620,471.174 C 462.707,463.839 470.966,447.875 473.522,438.500 C 475.769,430.261 476.351,408.493 474.556,399.887 Z" fill="#000000" stroke="none" />
  <path id="38" d="M 537.461,401.450 C 541.349,380.050 548.782,365.365 563.428,350.155 C 588.101,324.530 625.441,315.035 659.500,325.724 C 720.104,344.744 746.053,416.300 711.342,468.682 C 691.661,498.383 654.282,515.638 619.500,511.079 C 608.236,509.602 593.558,504.667 583.342,498.919 C 572.056,492.570 555.166,475.537 548.716,464 C 537.985,444.805 533.805,421.576 537.461,401.450 ZM 717.029,401.729 C 711.013,368.706 685.898,341.904 652.500,332.867 C 641.801,329.972 621.770,329.761 611.584,332.435 C 573.638,342.396 547.737,373.139 545.327,411.076 C 543.186,444.775 560.472,476.176 590.096,492.402 C 625.879,512.001 671.023,503.486 697.562,472.132 C 704.660,463.746 712.874,448.353 715.508,438.500 C 717.375,431.516 718.315,408.789 717.029,401.729 Z" fill="#000000" stroke="none" />
  <path id="30" d="M 717.029,401.729 C 718.315,408.789 717.375,431.516 715.508,438.500 C 712.874,448.353 704.660,463.746 697.562,472.132 C 671.023,503.486 625.879,512.001 590.096,492.402 C 560.472,476.176 543.186,444.775 545.327,411.076 C 547.737,373.139 573.638,342.396 611.584,332.435 C 621.770,329.761 641.801,329.972 652.500,332.867 C 685.898,341.904 711.013,368.706 717.029,401.729 ZM 567.084,407.754 C 566.598,409.814 566.155,414.443 566.100,418.040 C 565.488,457.867 612.967,478.401 641.425,450.617 C 659.637,432.837 659.371,403.669 640.842,386.514 C 622.896,369.899 595.964,370.132 579.048,387.048 C 573.779,392.317 568.617,401.250 567.084,407.754 Z" fill="#FFFFFF" stroke="none" />
  <path id="10" d="M 120,647 C 114.333,644.333 108.667,641.667 103,639 C 102.297,638.250 101.593,637.500 100.890,636.750 C 99.729,635.513 97.480,631.800 95.891,628.500 C 92.808,622.097 92.363,616.565 94,605 C 94.608,603.917 95.216,602.833 95.824,601.750 C 102.219,590.356 117.601,584.709 136.114,586.960 C 171.153,591.220 205.360,616.825 219,649 C 220.147,652.393 221.293,655.786 222.440,659.179 C 224.332,664.777 226.582,673.552 229,688 C 229.202,688.750 229.403,689.500 229.605,690.250 C 229.938,691.487 230.331,709.825 230.479,731 C 230.820,779.704 232.017,788.561 240.561,805.655 C 245.491,815.518 252.924,824.571 260.897,830.424 C 263.663,832.455 266.297,835.390 267.018,837.244 C 271.105,847.756 276.874,859.494 290,884 C 288.750,883.980 287.500,883.961 286.250,883.941 C 279.467,883.834 268.604,881.079 251,875 C 248.035,873.711 245.069,872.421 242.104,871.132 C 230.568,866.116 219.547,858.471 209.479,848.500 C 195.903,835.055 187.532,819.367 182,797 C 181.452,793.083 180.903,789.167 180.355,785.250 C 179.450,778.787 178.326,765.513 177,738 C 177,737.667 177,737.333 177,737 C 176.667,733.667 176.333,730.333 176,727 C 175.841,723.750 175.681,720.500 175.522,717.250 C 174.553,697.479 168.754,682.172 157.763,670.382 C 149.135,661.127 140.232,655.615 120,647 Z" fill="#815F9C" stroke="none" />
  <path id="30" d="M 474.556,399.887 C 476.351,408.493 475.769,430.261 473.522,438.500 C 470.966,447.875 462.707,463.839 456.620,471.174 C 445.661,484.380 430.234,494.549 413.500,499.598 C 405.596,501.983 402.734,502.325 390,502.407 C 377.688,502.486 374.293,502.154 367.500,500.206 C 303.884,481.966 281.899,404.839 326.885,357.719 C 342.626,341.231 361.488,332.257 384.186,330.455 C 399.830,329.213 419.126,333.845 433.349,342.258 C 442.936,347.928 455.796,360.424 462.001,370.096 C 467.845,379.206 472.591,390.469 474.556,399.887 ZM 367.931,405.798 C 361.277,426.608 371.648,449.705 392,459.403 C 398.149,462.333 399.149,462.500 410.500,462.500 C 421.888,462.500 422.832,462.340 429,459.374 C 446.552,450.934 455.964,434.924 454.756,415.563 C 454.073,404.618 450.345,396.310 442.361,387.939 C 419.016,363.465 378.346,373.223 367.931,405.798 Z" fill="#FFFFFF" stroke="none" />
  <path id="10" d="M 647,878 C 647.519,875.344 648.037,872.687 648.556,870.031 C 653.014,847.199 667.010,814.083 681.115,792.991 C 688.247,782.326 703.523,767.357 711.005,763.702 C 724.245,757.234 737.329,758.366 745.191,766.661 C 748.735,770.400 751.945,777.632 752,782 C 752.193,784.250 752.386,786.500 752.579,788.750 C 753.148,795.383 753.121,795.478 749,793 C 748.083,792.822 747.167,792.644 746.250,792.466 C 739.655,791.184 733.540,801.536 737.035,808.066 C 737.701,809.311 739.127,810 744,810 C 745.026,809.304 746.053,808.608 747.079,807.912 C 748.772,806.764 750.347,806.089 751,807 C 750.526,808.917 750.052,810.833 749.578,812.750 C 748.796,815.912 746.817,821.875 745.179,826 C 743.541,830.125 741.482,835.412 739,842 C 734.667,850.333 730.333,858.667 726,867 C 723.417,870.896 720.833,874.791 718.250,878.687 C 708.027,894.103 693.250,909.202 683.757,913.932 C 674.441,918.574 668.603,919.019 661.646,915.615 C 651.143,910.477 648.276,903.114 647,878 ZM 706,796 C 704.750,796.530 703.500,797.059 702.250,797.589 C 695.897,800.282 691.915,804.012 689,810 C 689.193,810.917 689.385,811.833 689.578,812.750 C 690.402,816.671 692.729,818.860 696.887,819.626 C 704.029,820.942 708.289,823.064 713.680,827.991 C 720.638,834.350 724.126,834.566 730,829 C 730.500,828.205 731,827.409 731.500,826.614 C 734.488,821.860 732.148,805.401 728,802 C 726.887,800.809 725.773,799.617 724.660,798.426 C 720.284,793.745 715.611,793.137 706,796 ZM 698.459,777.326 C 696.492,781.848 696.686,785.331 699.073,788.365 C 701.852,791.897 704.517,791.683 708.600,787.600 C 711.378,784.822 712,783.438 712,780.034 C 712,774.738 710.735,772.401 707.420,771.569 C 704.029,770.718 700.287,773.123 698.459,777.326 ZM 738,781 C 738.178,779.750 738.357,778.500 738.535,777.250 C 739.265,772.128 737,769 732.560,769 C 729.948,769 728.456,769.860 722,777 C 722,778.557 722,780.114 722,781.671 C 722,791.800 728.192,792.762 737,784 C 737.333,783 737.667,782 738,781 Z" fill="#815F9C" stroke="none" />
  <path id="10" d="M 265,786 C 265.188,784.997 265.376,783.993 265.564,782.990 C 266.888,775.923 269.529,770.417 273.501,766.446 C 278.870,761.077 283.311,759.628 292.577,760.223 C 298.385,760.596 301.017,761.338 311,767 C 311.324,767.391 311.648,767.781 311.972,768.172 C 312.638,768.975 312.323,769.761 309,772 C 308.500,772.605 308,773.211 307.500,773.816 C 305.264,776.524 305.598,783.220 308.131,786.440 C 309.303,787.930 311.329,789.566 315,791 C 315.659,791 316.318,791 316.977,791 C 320.008,791 322.270,786.718 321.856,781.763 C 321.737,780.342 321.619,778.921 321.500,777.500 C 323.357,779.333 325.213,781.167 327.070,783 C 333.663,789.510 338.014,796.279 356,828 C 357.179,831.083 358.358,834.167 359.537,837.250 C 365.947,854.014 369.061,867.290 369.681,880.500 C 370.207,891.704 370.070,892.981 365,907 C 363.896,908.182 362.791,909.364 361.687,910.546 C 359.268,913.135 356.785,914.507 352.484,915.630 C 345.783,917.380 343.815,917.127 332,913 C 330.375,911.864 328.749,910.727 327.124,909.591 C 314.079,900.470 299.465,880.851 286.584,855.168 C 279.148,840.342 274.784,829.734 268,810 C 267.840,809.083 267.679,808.167 267.519,807.250 C 267.359,806.333 267.199,805.417 267.039,804.500 C 269.359,806.333 271.680,808.167 274,810 C 274.845,810.208 275.690,810.415 276.535,810.623 C 282.055,811.980 284.942,804.656 281.506,798.011 C 278.606,792.402 272.757,790.381 268.354,793.465 C 267.204,794.271 265.979,794.720 265,794 C 265,791.333 265,788.667 265,786 ZM 281.328,771.566 C 278.311,775.692 280.485,785.125 285.217,788.439 C 292.747,793.714 298.796,785.693 294.351,776.326 C 291.459,770.232 284.234,767.591 281.328,771.566 ZM 314,797 C 313.154,796.483 312.309,795.965 311.463,795.448 C 307.360,792.939 299.890,792.485 295.672,794.486 C 291.103,796.654 288.590,800.684 286,810 C 286.001,812.583 286.003,815.167 286.004,817.750 C 286.009,827.380 288.359,831.862 294,833 C 294.703,833 295.407,833 296.110,833 C 297.270,833 300.638,830.790 303.593,828.089 C 308.962,823.182 314.136,820.676 321.306,819.508 C 326.311,818.693 329,815.907 329,811.535 C 329,806.387 324.618,802.141 314,797 Z" fill="#815F9C" stroke="none" />
  <path id="10" d="M 250,181 C 250.498,176.917 250.997,172.833 251.495,168.750 C 253.972,148.460 259.021,128.527 265.052,115.226 C 266.022,113.086 266.992,110.947 267.962,108.807 C 269.718,109.030 271.475,109.252 273.231,109.475 C 282.209,110.613 301.832,115.834 311.385,119.625 C 333.810,128.525 359.074,143.679 381.487,161.677 C 394.022,171.743 419.224,195.829 418.740,197.281 C 418.563,197.813 411.686,200.615 403.459,203.508 C 395.232,206.401 386.459,209.556 383.965,210.520 C 382.453,211.104 380.943,211.688 379.431,212.272 C 377.374,209.121 375.317,205.971 373.260,202.820 C 357.917,179.316 340.480,161.298 321.827,149.672 C 307.621,140.818 286,134.981 286,140 C 284.883,139.798 283.766,139.595 282.649,139.393 C 279.317,138.790 279.283,138.823 276.728,145.206 C 265.980,172.054 267.593,223.604 280.545,267.216 C 284.133,279.297 285.035,281.083 287,280 C 286.500,280.415 286.001,280.829 285.501,281.244 C 284.677,281.928 281.077,286.428 271,300 C 270.394,300.386 269.788,300.773 269.182,301.159 C 267.521,302.217 267.135,301.502 264.728,292.909 C 259.161,273.033 256.922,262.495 252,233 C 251.675,229.750 251.351,226.500 251.026,223.250 C 250.490,217.887 250.040,206.188 250,181 Z" fill="#815F9C" stroke="none" />
  <path id="30" d="M 739,139 C 742.203,139.985 745.284,147.272 748.300,161 C 750.072,169.063 750.394,173.979 750.427,193.500 C 750.479,224.149 747.339,245.022 739.030,269.250 C 737.687,273.167 736.343,277.083 735,281 C 730.583,276.566 726.167,272.132 721.750,267.698 C 702.403,248.276 682.016,233.272 659.255,221.706 C 653.620,218.843 649.008,216.224 649.005,215.887 C 648.993,214.290 665.681,190.435 672.766,181.921 C 686.539,165.369 705.223,150.616 720.668,144.097 C 724.425,142.511 730.088,140.715 739,139 Z" fill="#FFFFFF" stroke="none" />
  <path id="10" d="M 602,197 C 604.583,194.287 607.167,191.573 609.750,188.860 C 627.135,170.600 656.987,146.825 676.573,135.640 C 695.372,124.904 714.901,116.749 732,112.494 C 745.108,109.232 752.325,108.453 753.635,110.159 C 756.390,113.746 761.277,128.758 764,142 C 764.649,145.083 765.298,148.167 765.947,151.250 C 767.018,156.337 768.368,165.562 770,183 C 770.057,188.917 770.113,194.833 770.170,200.750 C 770.263,210.512 769.813,223.337 768,240 C 767.475,242.750 766.951,245.500 766.426,248.250 C 761.907,271.930 753.941,302 752.186,302 C 751.770,302 749.050,298.672 746.141,294.605 C 743.232,290.538 739.760,286.263 736,283 C 735.667,282.333 735.333,281.667 735,281 C 736.343,277.083 737.687,273.167 739.030,269.250 C 747.339,245.022 750.479,224.149 750.427,193.500 C 750.394,173.979 750.072,169.063 748.300,161 C 745.284,147.272 742.203,139.985 739,139 C 733.667,139 728.333,139 723,139 C 721.250,139.536 719.500,140.073 717.750,140.609 C 704.407,144.697 690.645,153.512 676.594,166.970 C 666.198,176.927 652,194.263 652,197 C 650.333,199.333 648.667,201.667 647,204 C 646.667,204.667 646.333,205.333 646,206 C 645.253,207.075 644.507,208.149 643.760,209.224 C 643.013,210.299 642.267,211.373 641.520,212.448 C 638.517,211.254 635.513,210.060 632.510,208.866 C 627.555,206.896 619,203.813 613.500,202.017 C 608,200.221 603.162,198.357 602,197 Z" fill="#815F9C" stroke="none" />
  <path id="30" d="M 287,280 C 285.035,281.083 284.133,279.297 280.545,267.216 C 267.593,223.604 265.980,172.054 276.728,145.206 C 279.283,138.823 279.317,138.790 282.649,139.393 C 283.766,139.595 284.883,139.798 286,140 C 288.403,140.685 290.805,141.370 293.208,142.055 C 318.036,149.133 346.305,174.310 366.889,207.680 C 368.571,210.407 370.254,213.134 371.936,215.861 C 368.363,217.751 364.791,219.642 361.218,221.532 C 332.530,236.711 314.769,250.702 287,280 Z" fill="#FFFFFF" stroke="none" />
  <path id="38" d="M 367.931,405.798 C 378.346,373.223 419.016,363.465 442.361,387.939 C 450.345,396.310 454.073,404.618 454.756,415.563 C 455.964,434.924 446.552,450.934 429,459.374 C 422.832,462.340 421.888,462.500 410.500,462.500 C 399.149,462.500 398.149,462.333 392,459.403 C 371.648,449.705 361.277,426.608 367.931,405.798 Z" fill="#000000" stroke="none" />
  <path id="38" d="M 567.084,407.754 C 568.617,401.250 573.779,392.317 579.048,387.048 C 595.964,370.132 622.896,369.899 640.842,386.514 C 659.371,403.669 659.637,432.837 641.425,450.617 C 612.967,478.401 565.488,457.867 566.100,418.040 C 566.155,414.443 566.598,409.814 567.084,407.754 Z" fill="#000000" stroke="none" />
  <path id="10" d="M 404,899 C 404.181,898.551 404.363,898.103 404.544,897.654 C 409.536,885.293 419.572,876.499 434.500,871.407 C 454.117,864.715 478.929,870.217 491.404,884.025 C 499.298,892.763 502.011,904.271 498,912 C 496.685,913.328 495.370,914.657 494.055,915.985 C 491.265,918.803 488.628,920.340 485.049,921.235 C 483.362,921.657 481.674,922.078 479.987,922.500 C 479.893,919.167 479.799,915.833 479.705,912.500 C 479.475,904.337 478.979,901.591 477.007,897.550 C 474.869,893.168 474.229,892.600 471.427,892.600 C 467.190,892.600 466.378,895.330 468.905,901.087 C 469.970,903.514 471.103,907.188 472,913 C 471.815,914.486 471.630,915.971 471.445,917.457 C 471.140,919.908 470.068,922.929 469.064,924.169 C 467.330,926.310 466.533,926.426 453.332,926.462 C 448.697,926.475 444.061,926.487 439.426,926.500 C 438.855,925.077 438.284,923.653 437.713,922.230 C 435.559,916.859 435.475,906.192 437.549,901.229 C 439.556,896.425 438.746,893 435.603,893 C 432.502,893 431.526,894.336 429.488,901.371 C 427.762,907.329 427.775,918.369 429.512,922.404 C 430.266,924.155 429.980,924.261 425.956,923.721 C 419.583,922.866 409.018,917.163 406.286,913.102 C 404.612,910.615 404,908.270 404,899 Z" fill="#815F9C" stroke="none" />
  <path id="10" d="M 519,898 C 519.373,897.083 519.745,896.167 520.118,895.250 C 522.737,888.807 527.555,882.820 534,878 C 536.172,877.117 538.344,876.234 540.516,875.351 C 544.100,873.894 550.174,871.869 561,869 C 563.250,868.994 565.500,868.988 567.750,868.982 C 591.802,868.916 614.272,886.008 614.444,904.500 C 614.494,909.886 614.170,910.868 611.277,914.101 C 607.854,917.925 598.360,922.743 592.309,923.725 C 589.019,924.259 588.739,924.131 589.425,922.408 C 589.843,921.359 590.369,917.912 591,909 C 590.867,907.679 590.733,906.358 590.600,905.037 C 589.968,898.776 586.979,893.555 583.817,893.190 C 579.548,892.697 578.663,895.609 581.032,902.350 C 582.115,905.430 583,909.536 583,915 C 582.466,916.688 581.933,918.375 581.399,920.063 C 579.277,926.772 577.647,927.338 562.243,926.710 C 558.157,926.544 554.072,926.377 549.986,926.211 C 549.488,925.020 548.991,923.828 548.493,922.637 C 546.308,917.409 546.585,907.835 549.089,902.015 C 551.445,896.538 551.337,894.215 548.651,892.607 C 547.095,891.675 546.422,892.015 542,898 C 541.522,899.417 541.045,900.833 540.567,902.250 C 539.779,904.588 539.104,910.242 539.067,914.817 C 538.987,924.777 540.022,924.701 523,916 C 522.335,914.917 521.669,913.833 521.004,912.750 C 519.619,910.495 519.006,907.739 519,898 Z" fill="#815F9C" stroke="none" />
  <path id="38" d="M 459.436,510.053 C 461.692,508.181 464.637,510.372 465.292,514.411 C 467.280,526.663 477.818,533.985 489.137,530.979 C 494.711,529.499 503.372,520.921 504.920,515.348 C 507.165,507.262 506.627,505.836 499.574,501.199 C 491.678,496.007 486.984,490.300 486.277,485.031 C 485.823,481.646 486.157,480.689 488.671,478.175 C 492.342,474.504 498.944,473 511.390,473 C 532.136,473 540.259,480.440 531.983,491.864 C 529.050,495.913 517.821,505 515.750,505 C 514.296,505 515.468,515.070 517.344,518.698 C 522.235,528.156 532.962,533.432 542.235,530.939 C 547.806,529.441 553.687,523.370 554.517,518.257 C 555.539,511.967 556.717,510 559.460,510 C 562.871,510 563.599,513.429 561.628,520.208 C 559.776,526.577 554.414,533.207 548.643,536.261 C 542.631,539.443 531.225,539.360 525,536.089 C 519.176,533.029 516.497,530.900 513.111,526.640 C 512.192,525.484 511.274,524.328 510.355,523.172 C 508.938,524.817 507.522,526.461 506.105,528.106 C 499.808,535.417 493.328,538.449 484,538.452 C 475.232,538.454 470.260,536.337 465.024,530.374 C 458.837,523.327 455.976,512.924 459.436,510.053 Z" fill="#000000" stroke="none" />
  <path id="174" d="M 467,199 C 406.116,208.555 364.455,226.192 320.583,260.986 C 318.055,262.991 315.528,264.995 313,267 C 321.762,257.087 344.365,240.947 365.500,229.511 C 375.958,223.852 405.206,211.785 416,208.675 C 430.465,204.507 456.236,199.080 461.750,199.039 C 463.500,199.026 465.250,199.013 467,199 Z" fill="#48245C" stroke="none" />
  <path id="37" d="M 706,796 C 715.611,793.137 720.284,793.745 724.660,798.426 C 725.773,799.617 726.887,800.809 728,802 C 728.489,804.250 728.977,806.500 729.466,808.750 C 730.272,812.463 730.947,818.088 731,827 C 730.091,827.833 729.182,828.667 728.273,829.500 C 724.172,833.259 720.743,832.770 715.207,827.632 C 709.591,822.421 705.792,820.364 699.149,818.939 C 691.940,817.393 689.250,813.689 691.482,808.381 C 692.883,805.048 697.646,800.986 706,796 Z" fill="#3D144C" stroke="none" />
  <path id="37" d="M 314,797 C 324.618,802.141 329,806.387 329,811.535 C 329,815.907 326.311,818.693 321.306,819.508 C 314.136,820.676 308.962,823.182 303.593,828.089 C 300.638,830.790 297.270,833 296.110,833 C 295.407,833 294.703,833 294,833 C 293.286,832.595 292.573,832.189 291.859,831.784 C 283.498,827.036 286.969,800.525 296.522,796.172 C 300.425,794.394 308.313,794.767 314,797 Z" fill="#3D144C" stroke="none" />
  <path id="38" d="M 388.137,295.573 C 388.886,295.325 393.006,294.191 397.291,293.053 C 412.931,288.898 425.049,280.708 433.103,268.848 C 435.287,265.632 437.461,263 437.934,263 C 439.955,263 445,270.188 445,273.067 C 445,280.954 437.240,289.914 425.645,295.416 C 414.351,300.775 404.576,302.174 394.115,299.931 C 388.881,298.809 385.595,296.413 388.137,295.573 Z" fill="#000000" stroke="none" />
  <path id="38" d="M 581.950,268.314 C 583.592,265.622 586.720,263 588.292,263 C 588.525,263 590.359,265.662 592.367,268.916 C 599.770,280.910 612.600,289.198 631.250,294.034 C 636.062,295.282 640,296.626 640,297.020 C 640,298.371 628.370,301 622.394,301 C 606.401,301 586.987,290.700 581.871,279.500 C 579.535,274.386 579.550,272.250 581.950,268.314 Z" fill="#000000" stroke="none" />
  <path id="38" d="M 252,520 C 279.866,511.331 281.475,511.157 280.801,516.883 C 280.528,519.205 279.430,519.782 268.750,523.219 C 264.833,524.479 260.917,525.740 257,527 C 253.333,528.333 249.667,529.667 246,531 C 207.907,543.306 196.224,546.640 195.462,546.347 C 193.350,545.537 192.594,541.978 194.193,540.379 C 194.962,539.610 205.809,535.610 218.296,531.490 C 225.864,528.993 233.432,526.497 241,524 C 244.667,522.667 248.333,521.333 252,520 Z" fill="#000000" stroke="none" />
  <path id="38" d="M 781,494 C 758.773,496.452 751.056,497.014 749.511,496.832 C 745.701,496.382 743.982,493.590 746.169,491.403 C 747.384,490.188 752.327,489.284 765.402,487.884 C 771.268,487.256 777.134,486.628 783,486 C 784.083,486.209 785.167,486.417 786.250,486.626 C 788.037,486.970 790.124,487.751 790.887,488.362 C 791.960,489.221 792.583,488.966 795,485 C 795.333,484.667 795.667,484.333 796,484 C 822.231,481.510 830.331,481.087 830.923,481.453 C 832.629,482.508 832.174,486.837 830.250,487.858 C 829.287,488.368 820.513,489.509 810.750,490.393 C 804.833,490.929 798.917,491.464 793,492 C 789,492.667 785,493.333 781,494 Z" fill="#000000" stroke="none" />
  <path id="38" d="M 238,486 C 275.638,490.030 277.418,490.481 274.816,495.343 C 274.447,496.032 274.079,496.721 273.710,497.410 C 268.258,496.842 262.807,496.273 257.355,495.705 C 251.903,495.137 246.452,494.568 241,494 C 237,493.667 233,493.333 229,493 C 199.938,489.469 190.938,488.092 190.250,487.663 C 188.430,486.526 188.720,482.321 190.670,481.573 C 191.588,481.221 199.913,481.622 209.170,482.466 C 214.780,482.977 220.390,483.489 226,484 C 230,484.667 234,485.333 238,486 Z" fill="#000000" stroke="none" />
  <path id="38" d="M 764,527 C 741.668,519.726 740.470,519.096 740.199,516.837 C 739.748,513.076 742.137,511.578 746.461,512.910 C 747.641,513.273 748.820,513.637 750,514 C 751.750,514.959 753.500,515.918 755.250,516.877 C 758.138,518.460 762.300,520.068 764.500,520.451 C 766.700,520.834 769.481,521.779 770.680,522.551 C 771.879,523.323 774.691,524.189 781,525 C 826.477,539.260 827.514,539.697 827.810,542.223 C 828.457,547.738 826.110,547.459 800.176,538.941 C 792.117,536.294 784.059,533.647 776,531 C 772,529.667 768,528.333 764,527 Z" fill="#000000" stroke="none" />
  <path id="174" d="M 258,345 C 243.330,381.176 234,424.346 234,456.051 C 234,460.034 234,464.017 234,468 C 233.729,436.146 234.118,431.090 236.391,417.792 C 241.275,389.215 249.690,358.615 255.101,349.750 C 256.067,348.167 257.034,346.583 258,345 Z" fill="#48245C" stroke="none" />
  <path id="37" d="M 241,494 C 239.862,496.077 242.874,504.262 248.086,513.250 C 249.391,515.500 250.695,517.750 252,520 C 248.333,521.333 244.667,522.667 241,524 C 234.783,509.516 232.083,502.542 230.989,499.156 C 230.326,497.104 229.663,495.052 229,493 C 233,493.333 237,493.667 241,494 Z" fill="#3D144C" stroke="none" />
  <path id="37" d="M 771,518 C 777.353,503.843 779.603,498.444 780.099,496.867 C 780.399,495.911 780.700,494.956 781,494 C 785,493.333 789,492.667 793,492 C 786.078,509.072 782.928,516.047 781.534,518.514 C 780.689,520.009 779.845,521.505 779,523 C 777.667,522.653 776.333,522.307 775,521.960 C 772.635,521.345 771,520.323 771,518 Z" fill="#3D144C" stroke="none" />
  <path id="174" d="M 268,810 C 274.784,829.734 279.148,840.342 286.584,855.168 C 299.465,880.851 314.079,900.470 327.124,909.591 C 328.749,910.727 330.375,911.864 332,913 C 332,913.333 332,913.667 332,914 C 323.647,908.673 318.018,903.491 314.102,899.047 C 306.796,890.756 295.846,874.961 289.662,863.795 C 283.180,852.091 271.906,825.841 269.947,817.896 C 269.298,815.264 268.649,812.632 268,810 Z" fill="#48245C" stroke="none" />
  <path id="195" d="M 286,810 C 288.590,800.684 291.103,796.654 295.672,794.486 C 299.890,792.485 307.360,792.939 311.463,795.448 C 312.309,795.965 313.154,796.483 314,797 C 308.313,794.767 300.425,794.394 296.522,796.172 C 286.969,800.525 283.498,827.036 291.859,831.784 C 292.573,832.189 293.286,832.595 294,833 C 288.359,831.862 286.009,827.380 286.004,817.750 C 286.003,815.167 286.001,812.583 286,810 Z" fill="#744F8B" stroke="none" />
  <path id="37" d="M 698.459,777.326 C 700.287,773.123 704.029,770.718 707.420,771.569 C 710.735,772.401 712,774.738 712,780.034 C 712,783.438 711.378,784.822 708.600,787.600 C 704.517,791.683 701.852,791.897 699.073,788.365 C 696.686,785.331 696.492,781.848 698.459,777.326 Z" fill="#3D144C" stroke="none" />
  <path id="37" d="M 315,791 C 311.329,789.566 309.303,787.930 308.131,786.440 C 305.598,783.220 305.264,776.524 307.500,773.816 C 308,773.211 308.500,772.605 309,772 C 309.547,771.826 310.094,771.651 310.641,771.477 C 313.205,770.660 316.866,773.671 319.231,778.539 C 322.061,784.364 320.959,787.608 315,791 Z" fill="#3D144C" stroke="none" />
  <path id="174" d="M 120,647 C 140.232,655.615 149.135,661.127 157.763,670.382 C 168.754,682.172 174.553,697.479 175.522,717.250 C 175.681,720.500 175.841,723.750 176,727 C 172.461,693.937 168.293,682.393 155.051,668.990 C 148.363,662.220 145.540,660.254 133.673,654.095 C 129.115,651.730 124.558,649.365 120,647 Z" fill="#48245C" stroke="none" />
  <path id="37" d="M 738,781 C 737.667,782 737.333,783 737,784 C 735.787,784.833 734.573,785.667 733.360,786.500 C 729.095,789.430 727.326,789.605 724.829,787.345 C 719.978,782.955 725.628,770 732.394,770 C 736.369,770 738,773.202 738,781 Z" fill="#3D144C" stroke="none" />
  <path id="174" d="M 252,233 C 256.922,262.495 259.161,273.033 264.728,292.909 C 267.135,301.502 267.521,302.217 269.182,301.159 C 269.788,300.773 270.394,300.386 271,300 C 268.606,303.699 267.766,304.141 267.169,303.496 C 265.370,301.555 259.527,280.620 255.955,263.314 C 253.341,250.648 250.710,233 251.436,233 C 251.624,233 251.812,233 252,233 Z" fill="#48245C" stroke="none" />
  <path id="174" d="M 472,913 C 471.103,907.188 469.970,903.514 468.905,901.087 C 466.378,895.330 467.190,892.600 471.427,892.600 C 474.229,892.600 474.869,893.168 477.007,897.550 C 478.979,901.591 479.475,904.337 479.705,912.500 C 479.799,915.833 479.893,919.167 479.987,922.500 C 481.674,922.078 483.362,921.657 485.049,921.235 C 488.628,920.340 491.265,918.803 494.055,915.985 C 495.370,914.657 496.685,913.328 498,912 C 497.955,914.225 496.612,915.990 494.987,917.358 C 491.908,919.949 481.460,924.320 479.728,923.743 C 479.173,923.558 478.646,919.001 478.539,913.455 C 478.302,901.216 475.628,893.750 471.482,893.750 C 468.372,893.750 468.285,895.616 471.053,902.898 C 472.181,905.867 472.856,909.354 472.552,910.648 C 472.368,911.432 472.184,912.216 472,913 Z" fill="#48245C" stroke="none" />
  <path id="174" d="M 523,916 C 540.022,924.701 538.987,924.777 539.067,914.817 C 539.104,910.242 539.779,904.588 540.567,902.250 C 541.045,900.833 541.522,899.417 542,898 C 540.217,909.255 539.930,914.918 540.211,917.846 C 540.583,921.718 540.361,923.307 539.398,923.677 C 537.280,924.490 528.103,921.020 525.439,918.399 C 524.626,917.599 523.813,916.800 523,916 Z" fill="#48245C" stroke="none" />
  <path id="37" d="M 281.328,771.566 C 284.234,767.591 291.459,770.232 294.351,776.326 C 298.796,785.693 292.747,793.714 285.217,788.439 C 280.485,785.125 278.311,775.692 281.328,771.566 Z" fill="#3D144C" stroke="none" />
  <path id="37" d="M 744,810 C 739.127,810 737.701,809.311 737.035,808.066 C 733.540,801.536 739.655,791.184 746.250,792.466 C 747.167,792.644 748.083,792.822 749,793 C 749.323,793.583 749.647,794.167 749.970,794.750 C 752.200,798.774 750.889,802.121 744,810 Z" fill="#3D144C" stroke="none" />
  <path id="174" d="M 736,283 C 739.760,286.263 743.232,290.538 746.141,294.605 C 749.050,298.672 751.770,302 752.186,302 C 753.941,302 761.907,271.930 766.426,248.250 C 766.951,245.500 767.475,242.750 768,240 C 768,247.003 765.521,260.276 760.471,280.318 C 755.981,298.138 753.707,304.404 751.945,303.814 C 751.429,303.641 747.630,298.888 743.503,293.250 C 741.002,289.833 738.501,286.417 736,283 Z" fill="#48245C" stroke="none" />
  <path id="174" d="M 786,441 C 783.705,420.268 778.715,393.172 774.536,378.750 C 773.691,375.833 772.845,372.917 772,370 C 774.248,371.780 777.756,384.356 782.013,405.899 C 785.333,422.701 787.768,441 786.684,441 C 786.456,441 786.228,441 786,441 Z" fill="#48245C" stroke="none" />
  <path id="174" d="M 751,807 C 750.347,806.089 748.772,806.764 747.079,807.912 C 746.053,808.608 745.026,809.304 744,810 C 750.889,802.121 752.200,798.774 749.970,794.750 C 749.647,794.167 749.323,793.583 749,793 C 753.121,795.478 753.148,795.383 752.579,788.750 C 752.386,786.500 752.193,784.250 752,782 C 753.940,783.099 754.108,786.192 753.699,792.907 C 753.377,798.194 752.637,803.528 752.056,804.760 C 751.704,805.507 751.352,806.253 751,807 Z" fill="#48245C" stroke="none" />
  <path id="174" d="M 689,810 C 691.915,804.012 695.897,800.282 702.250,797.589 C 703.500,797.059 704.750,796.530 706,796 C 697.646,800.986 692.883,805.048 691.482,808.381 C 689.250,813.689 691.940,817.393 699.149,818.939 C 705.792,820.364 709.591,822.421 715.207,827.632 C 720.743,832.770 724.172,833.259 728.273,829.500 C 729.182,828.667 730.091,827.833 731,827 C 730.667,827.667 730.333,828.333 730,829 C 724.126,834.566 720.638,834.350 713.680,827.991 C 708.289,823.064 704.029,820.942 696.887,819.626 C 692.729,818.860 690.402,816.671 689.578,812.750 C 689.385,811.833 689.193,810.917 689,810 Z" fill="#48245C" stroke="none" />
  <path id="173" d="M 750,514 C 765.687,519.227 768.599,519.781 769.606,519.034 C 770.071,518.689 770.535,518.345 771,518 C 771,520.323 772.635,521.345 775,521.960 C 776.333,522.307 777.667,522.653 779,523 C 779.667,523.667 780.333,524.333 781,525 C 774.691,524.189 771.879,523.323 770.680,522.551 C 769.481,521.779 766.700,520.834 764.500,520.451 C 762.300,520.068 758.138,518.460 755.250,516.877 C 753.500,515.918 751.750,514.959 750,514 Z" fill="#120D14" stroke="none" />
  <path id="174" d="M 409,855 C 399.783,818.188 394.834,797.713 392.054,785.750 C 390.369,778.500 388.685,771.250 387,764 C 388.368,765.938 390.880,775.725 393.465,787 C 396.050,798.275 399.695,813.633 401.565,821.129 C 403.435,828.625 405.872,839.312 406.982,844.879 C 407.655,848.253 408.327,851.626 409,855 Z" fill="#48245C" stroke="none" />
  <path id="192" d="M 625,793 C 625,796.353 609.352,862.630 607.942,865.250 C 607.628,865.833 607.314,866.417 607,867 C 606.680,864.289 607.847,859.025 617.581,819.250 C 621.114,804.812 624.228,793 624.502,793 C 624.668,793 624.834,793 625,793 Z" fill="#522E67" stroke="none" />
  <path id="195" d="M 177,738 C 178.326,765.513 179.450,778.787 180.355,785.250 C 180.903,789.167 181.452,793.083 182,797 C 180.212,794.516 177,777.574 177,770.631 C 177,769.421 177,768.210 177,767 C 177,757.333 177,747.667 177,738 Z" fill="#744F8B" stroke="none" />
  <path id="192" d="M 265,794 C 265.979,794.720 267.204,794.271 268.354,793.465 C 272.757,790.381 278.606,792.402 281.506,798.011 C 284.942,804.656 282.055,811.980 276.535,810.623 C 275.690,810.415 274.845,810.208 274,810 C 281.378,810.274 284.117,804.983 280.050,798.314 C 276.465,792.435 271.671,791.648 267.371,796.231 C 266.661,796.987 265.952,797.744 265.242,798.500 C 265.202,797.750 265.161,797 265.121,796.250 C 265.081,795.500 265.040,794.750 265,794 Z" fill="#522E67" stroke="none" />
  <path id="192" d="M 393,617 C 396.024,617 404.912,618.968 414.701,621.373 C 424.490,623.778 436.663,626.478 441.750,627.373 C 444.833,627.915 447.917,628.458 451,629 C 449.837,630.614 432.281,627.735 410.751,622.399 C 404.834,620.933 398.917,619.466 393,618 C 393,617.667 393,617.333 393,617 Z" fill="#522E67" stroke="none" />
  <path id="174" d="M 251,875 C 268.604,881.079 279.467,883.834 286.250,883.941 C 287.500,883.961 288.750,883.980 290,884 C 289.330,886.145 282.276,885.596 269.500,882.404 C 262.439,880.640 251,876.424 251,875.585 C 251,875.390 251,875.195 251,875 Z" fill="#48245C" stroke="none" />
  <path id="174" d="M 722,777 C 728.456,769.860 729.948,769 732.560,769 C 737,769 739.265,772.128 738.535,777.250 C 738.357,778.500 738.178,779.750 738,781 C 738,773.202 736.369,770 732.394,770 C 725.628,770 719.978,782.955 724.829,787.345 C 727.326,789.605 729.095,789.430 733.360,786.500 C 734.573,785.667 735.787,784.833 737,784 C 728.192,792.762 722,791.800 722,781.671 C 722,780.114 722,778.557 722,777 Z" fill="#48245C" stroke="none" />
  <path id="173" d="M 783,486 C 785.230,478.280 786.129,474.455 786.438,472.519 C 786.625,471.346 786.813,470.173 787,469 C 786.318,478.707 785.802,482.354 785.413,483.367 C 784.780,485.017 785.243,485.199 789.853,485.105 C 791.569,485.070 793.284,485.035 795,485 C 792.583,488.966 791.960,489.221 790.887,488.362 C 790.124,487.751 788.037,486.970 786.250,486.626 C 785.167,486.417 784.083,486.209 783,486 Z" fill="#120D14" stroke="none" />
  <path id="195" d="M 356,828 C 338.014,796.279 333.663,789.510 327.070,783 C 325.213,781.167 323.357,779.333 321.500,777.500 C 321.619,778.921 321.737,780.342 321.856,781.763 C 322.270,786.718 320.008,791 316.977,791 C 316.318,791 315.659,791 315,791 C 320.959,787.608 322.061,784.364 319.231,778.539 C 316.866,773.671 313.205,770.660 310.641,771.477 C 310.094,771.651 309.547,771.826 309,772 C 312.323,769.761 312.638,768.975 311.972,768.172 C 311.648,767.781 311.324,767.391 311,767 C 325.985,777.052 336.959,790.761 349.225,814.750 C 351.483,819.167 353.742,823.583 356,828 Z" fill="#744F8B" stroke="none" />
  <path id="195" d="M 94,605 C 92.363,616.565 92.808,622.097 95.891,628.500 C 97.480,631.800 99.729,635.513 100.890,636.750 C 101.593,637.500 102.297,638.250 103,639 C 92.629,629.719 88.355,617.204 92.497,608.250 C 92.998,607.167 93.499,606.083 94,605 Z" fill="#744F8B" stroke="none" />
  <path id="174" d="M 229,688 C 226.582,673.552 224.332,664.777 222.440,659.179 C 221.293,655.786 220.147,652.393 219,649 C 220.428,649.791 222.030,653.586 223.481,657.943 C 226.296,666.396 230.729,688 229.648,688 C 229.432,688 229.216,688 229,688 Z" fill="#48245C" stroke="none" />
  <path id="174" d="M 583,915 C 583,909.536 582.115,905.430 581.032,902.350 C 578.663,895.609 579.548,892.697 583.817,893.190 C 586.979,893.555 589.968,898.776 590.600,905.037 C 590.733,906.358 590.867,907.679 591,909 C 587.677,897.702 585.813,894 583.446,894 C 580.964,894 580.661,896.731 582.440,903.070 C 583.365,906.367 583.870,910.401 583.561,912.033 C 583.374,913.022 583.187,914.011 583,915 Z" fill="#48245C" stroke="none" />
  <path id="192" d="M 409,632 C 406.288,632.032 403.805,631.748 401.732,631.390 C 400.476,631.173 399.219,630.955 397.963,630.738 C 397.086,632.770 396.209,634.804 395.332,636.836 C 393.885,640.189 392.319,643.172 391.851,643.466 C 391.567,643.644 391.284,643.822 391,644 C 392.018,639.737 393.425,636.264 394.784,633.532 C 395.608,631.876 396.431,630.220 397.255,628.564 C 399.213,629.137 401.169,629.709 403.127,630.282 C 405.085,630.855 407.042,631.427 409,632 Z" fill="#522E67" stroke="none" />
  <path id="192" d="M 332,913 C 343.815,917.127 345.783,917.380 352.484,915.630 C 356.785,914.507 359.268,913.135 361.687,910.546 C 362.791,909.364 363.896,908.182 365,907 C 360.691,914.705 354.629,918.333 346.065,918.333 C 342.040,918.333 338.983,917.667 336.126,916.167 C 334.751,915.445 333.375,914.722 332,914 C 332,913.667 332,913.333 332,913 Z" fill="#522E67" stroke="none" />
  <path id="174" d="M 329,590 C 354.850,602.905 365.669,607.623 383.250,613.655 C 386.500,614.770 389.750,615.885 393,617 C 393,617.333 393,617.667 393,618 C 359.034,605.768 329,592.944 329,590.673 C 329,590.449 329,590.224 329,590 Z" fill="#48245C" stroke="none" />
  <path id="195" d="M 561,869 C 550.174,871.869 544.100,873.894 540.516,875.351 C 538.344,876.234 536.172,877.117 534,878 C 543.732,872.346 549.444,870.157 553.672,869.239 C 557.703,868.364 561,867.952 561,868.324 C 561,868.549 561,868.775 561,869 Z" fill="#744F8B" stroke="none" />
  <path id="174" d="M 652,197 C 652,194.263 666.198,176.927 676.594,166.970 C 690.645,153.512 704.407,144.697 717.750,140.609 C 719.500,140.073 721.250,139.536 723,139 C 708.662,145.208 701.575,149.010 698,151.454 C 687.077,158.921 673.845,170.205 669.217,176 C 666.801,179.025 661.939,184.988 658.412,189.250 C 656.275,191.833 654.137,194.417 652,197 Z" fill="#48245C" stroke="none" />
  <path id="174" d="M 354,721 C 348.019,734.562 344.419,743.787 342.141,750.250 C 340.761,754.167 339.380,758.083 338,762 C 343.596,742.797 347.056,733.933 349.570,729.250 C 351.047,726.500 352.523,723.750 354,721 Z" fill="#48245C" stroke="none" />
  <path id="174" d="M 516,882 C 516.333,870 516.667,858 517,846 C 517.388,873.901 517.162,882.002 516.750,882.001 C 516.500,882.001 516.250,882 516,882 Z" fill="#48245C" stroke="none" />
  <path id="174" d="M 770,183 C 768.368,165.562 767.018,156.337 765.947,151.250 C 765.298,148.167 764.649,145.083 764,142 C 766.396,143.901 770.085,163.912 770.037,174.750 C 770.025,177.500 770.012,180.250 770,183 Z" fill="#48245C" stroke="none" />
  <path id="174" d="M 408,807 C 411,820.333 414,833.667 417,847 C 415.864,846.228 406.465,807 407.416,807 C 407.611,807 407.805,807 408,807 Z" fill="#48245C" stroke="none" />
  <path id="192" d="M 642,856 C 640.863,855.175 645.058,839.581 647.079,837.121 C 647.386,836.747 647.693,836.374 648,836 C 648.661,836.402 647.310,840.903 645.426,846.260 C 644.284,849.507 643.142,852.753 642,856 Z" fill="#522E67" stroke="none" />
  <path id="174" d="M 617,783 C 621.840,760.138 623.639,752.487 624.122,751.250 C 624.415,750.500 624.707,749.750 625,749 C 622.333,760.333 619.667,771.667 617,783 Z" fill="#48245C" stroke="none" />
  <path id="195" d="M 728,802 C 732.148,805.401 734.488,821.860 731.500,826.614 C 731,827.409 730.500,828.205 730,829 C 730.333,828.333 730.667,827.667 731,827 C 730.947,818.088 730.272,812.463 729.466,808.750 C 728.977,806.500 728.489,804.250 728,802 Z" fill="#744F8B" stroke="none" />
</svg>
